PathFileType	4	(X/Y/Z)	C:/Users/opensim2020/Desktop/walking_exp_matlab/subject01_walking13_straight_02.trc	
DataRate	CameraRate	NumFrames	NumMarkers	Units	OrigDataRate	OrigDataStartFrame	OrigNumFrames	
100.00	100.00	8	42	mm	100.00	1132	172	
Frame#	Time	LFHD			RFHD			LBHD			RBHD			C7			T10			CLAV			STRN			RBAK			LSHO			LUPA			LELB			LFRM			LWRA			LWRB			LFIN			RSHO			RUPA			RELB			RFRM			RWRA			RWRB			RFIN			LASI			RASI			LPSI			RPSI			LTHI			LKNE			LTIB			LANK			LHEE			LTOE			RTHI			RKNE			RTIB			RANK			RHEE			RTOE			*39			*40			*41			
		X1	Y1	Z1	X2	Y2	Z2	X3	Y3	Z3	X4	Y4	Z4	X5	Y5	Z5	X6	Y6	Z6	X7	Y7	Z7	X8	Y8	Z8	X9	Y9	Z9	X10	Y10	Z10	X11	Y11	Z11	X12	Y12	Z12	X13	Y13	Z13	X14	Y14	Z14	X15	Y15	Z15	X16	Y16	Z16	X17	Y17	Z17	X18	Y18	Z18	X19	Y19	Z19	X20	Y20	Z20	X21	Y21	Z21	X22	Y22	Z22	X23	Y23	Z23	X24	Y24	Z24	X25	Y25	Z25	X26	Y26	Z26	X27	Y27	Z27	X28	Y28	Z28	X29	Y29	Z29	X30	Y30	Z30	X31	Y31	Z31	X32	Y32	Z32	X33	Y33	Z33	X34	Y34	Z34	X35	Y35	Z35	X36	Y36	Z36	X37	Y37	Z37	X38	Y38	Z38	X39	Y39	Z39	X40	Y40	Z40	X41	Y41	Z41	X42	Y42	Z42	

44	0.430	1514.70032	713.35626	1651.15149	1404.08911	690.52722	1657.90491	1495.86755	829.57233	1611.23767	1378.20215	809.19159	1617.39392	1453.13245	871.78723	1417.15906	1444.42261	910.30139	1123.32727	1451.50586	728.88489	1346.69727	1461.92981	686.91949	1192.77332	1381.39966	928.63428	1219.70532	1611.09778	791.05255	1382.64819	1716.08484	815.10388	1215.30640	1758.00635	800.03162	1069.51721	1773.52759	683.17090	1044.73950	1742.40369	549.03894	1061.15283	1770.94116	567.11707	1012.38104	1783.52283	487.12241	1026.30994	1300.09424	794.38953	1372.39612	1206.47119	896.29333	1189.51892	1194.69971	920.66663	1069.43933	1156.90723	923.31598	951.10370	1162.66833	869.03253	820.96466	1130.19470	916.21368	830.93530	1117.25562	888.44983	752.91949	1573.01526	750.52771	919.12195	1356.46936	717.45288	923.92511	1487.60608	924.76068	930.82214	1344.99402	902.10028	926.90314	1625.71765	861.95001	597.36566	1615.51599	910.46497	468.22318	1618.69788	1046.83069	334.61374	1572.64343	1181.17517	159.12964	1517.45422	1226.42566	163.39050	1579.77332	1095.30212	38.15713	1285.65942	676.70691	604.10596	1312.73352	618.78223	459.44690	1303.94128	633.98431	284.86938	1341.47705	608.36292	77.92924	1390.41187	652.15320	35.23682	1347.38367	465.89911	54.24085	1426.18311	702.76770	1691.15723	-3101.86621	1973.12842	1023.56873	-3140.62524	2012.52954	1021.99438 
45	0.440	1511.92310	700.87280	1651.64075	1401.46582	677.69788	1658.11694	1492.85413	816.97998	1611.57007	1375.23096	796.12280	1617.45605	1450.68359	858.28894	1417.04065	1443.75110	895.97656	1122.82849	1449.31226	715.34320	1346.92480	1459.86096	672.97949	1193.19910	1379.49329	915.00482	1219.11584	1609.17590	777.96094	1382.55261	1713.98401	803.43622	1215.38232	1756.50867	789.93085	1069.53235	1772.03137	673.29138	1044.19116	1740.50171	539.24939	1059.92957	1769.13306	557.36591	1011.20575	1781.40295	477.18042	1025.04858	1297.73267	781.03351	1371.56372	1204.19727	880.39801	1186.87439	1193.22925	903.90259	1066.62769	1155.84656	906.67358	948.16498	1162.58093	853.38666	817.96686	1129.66138	900.49268	828.01935	1117.30481	873.17957	750.01349	1571.24731	734.84009	918.24225	1355.05042	702.77899	923.60834	1488.00110	909.78516	929.76605	1344.47888	887.65424	926.84943	1625.06946	843.51056	595.65527	1616.15564	891.20874	466.63300	1619.18896	1031.05627	336.79764	1574.30505	1170.58496	165.88599	1518.54663	1214.36621	172.85727	1579.97498	1094.87036	38.27564	1283.31213	665.85425	603.61243	1312.89575	604.44507	460.77332	1301.72266	620.71082	286.12360	1340.91162	604.18939	77.75971	1389.06372	650.65826	36.55066	1349.94348	462.68332	47.30960	1423.26660	689.99731	1691.84692	-3102.00879	1972.94836	1023.90198	-3140.57642	2012.52844	1022.11566 
46	0.450	1509.26050	688.32739	1652.01819	1398.82654	664.62054	1658.29248	1489.73914	804.29108	1611.92358	1372.14771	782.96716	1617.53564	1448.45728	844.64130	1417.08777	1443.16748	881.78632	1122.37305	1447.36145	702.00793	1347.33594	1457.93677	658.95184	1193.69385	1377.55786	901.35468	1218.75061	1607.25598	764.76697	1382.66809	1712.03674	792.00757	1215.85059	1754.94751	780.29175	1069.95520	1770.28967	663.77148	1043.36731	1738.54272	529.79053	1058.01501	1767.30603	548.12445	1009.44495	1779.25061	467.84607	1022.92871	1295.79651	767.93555	1370.98047	1201.98877	864.17993	1184.60657	1191.93970	886.64221	1064.09436	1155.05701	889.68976	945.66138	1162.63635	837.08893	815.07544	1129.26233	883.82611	825.44354	1117.38489	857.04401	747.31427	1569.22766	719.34125	917.41711	1353.54797	688.44171	923.78864	1488.49316	894.95270	928.82507	1344.28601	873.83392	927.34442	1624.49231	823.77905	593.87946	1616.77148	870.18866	464.66180	1619.65186	1014.00616	339.61490	1575.79285	1158.67969	172.99739	1518.95166	1199.83203	182.60136	1580.02307	1094.81262	38.42043	1282.95984	655.20770	603.30304	1313.42920	590.91107	461.34482	1300.64197	608.68018	287.10654	1341.46167	601.26202	77.76620	1388.98047	649.47845	37.27169	1350.21631	460.63306	44.05576	1420.48914	676.99963	1692.23120	-3101.88696	1973.16907	1023.53223	-3140.72485	2012.51672	1022.10455 
47	0.460	1506.55164	675.79755	1652.36951	1396.27612	651.60327	1658.34155	1486.63708	791.65149	1612.15881	1369.19360	769.79590	1617.43921	1446.38806	831.10229	1417.04846	1442.52002	868.01990	1122.09595	1445.52234	688.59167	1347.68726	1456.22583	644.89996	1194.14771	1375.84021	887.69385	1218.41895	1605.31348	751.53693	1382.96204	1709.93433	780.73608	1216.34790	1753.07019	770.94519	1070.41858	1768.39893	654.78308	1042.44006	1736.49963	520.74799	1055.44397	1765.47705	539.51984	1007.19299	1777.00952	458.97086	1019.91516	1293.90723	754.48779	1370.53442	1199.96179	847.82581	1182.63672	1190.74121	869.11499	1061.92554	1154.42065	872.28955	943.66003	1162.67615	820.28644	812.79095	1128.66907	866.79358	823.17505	1117.64075	840.32831	744.90259	1566.90222	703.91486	916.61884	1352.13672	674.61102	924.51044	1488.97815	880.34131	928.13654	1344.35291	860.17834	928.14606	1623.97546	803.08832	591.69385	1617.49341	847.71082	462.49658	1620.02563	995.79132	342.74567	1577.36584	1145.25525	179.84637	1519.25403	1183.58337	192.12489	1579.95288	1093.12488	39.45603	1283.22119	642.92517	603.46802	1313.53662	578.57440	460.79282	1299.85205	598.26819	285.68494	1342.10840	599.87628	77.72580	1389.46265	648.54865	37.74638	1349.06946	459.61731	41.62953	1417.82935	664.15027	1692.15283	-3101.96997	1973.17700	1023.47827	-3140.73145	2012.47864	1022.15240 
48	0.470	1503.87451	663.23938	1652.79260	1393.59436	638.70721	1658.28223	1483.66150	778.94354	1612.34729	1366.24121	756.65521	1617.15173	1444.53174	817.95239	1416.83777	1441.92139	854.48944	1121.94116	1443.80627	675.08380	1347.97766	1454.69824	630.95667	1194.55493	1374.48901	873.97821	1218.03650	1603.45483	738.23047	1383.24866	1707.68652	769.64160	1216.75989	1751.18530	762.14758	1071.19507	1766.35681	646.21271	1041.34827	1734.51855	512.08093	1052.41260	1763.58142	531.41663	1004.34381	1774.78613	450.57889	1016.03839	1292.20740	741.32367	1370.31238	1198.20984	831.47498	1180.96423	1189.78308	851.70886	1060.15100	1153.92297	854.43347	942.01874	1162.75708	802.80267	810.89166	1128.31628	848.86768	821.52625	1117.85681	822.81940	742.77747	1564.42981	689.11261	915.98492	1350.47083	661.34058	925.18872	1489.28625	866.07031	927.78192	1344.33704	846.89191	929.04907	1623.62561	781.67969	589.30493	1618.18604	824.38495	460.06207	1620.89514	976.83496	346.26196	1578.67102	1130.51233	186.53238	1519.80664	1166.85352	201.75470	1580.45972	1089.00415	42.62567	1282.88538	629.43860	603.95630	1313.40540	567.26135	459.41736	1299.64014	590.43628	283.50156	1343.06091	597.83777	77.77156	1389.48975	647.91144	38.05846	1350.10535	457.99335	40.06292	1415.07935	650.89618	1692.30310	-3101.97363	1973.17041	1023.46741	-3140.82104	2012.51355	1022.07953 
49	0.480	1501.16187	650.62842	1653.38989	1390.88513	625.73975	1658.40454	1480.88269	766.20563	1612.56482	1363.41125	743.59143	1616.75952	1442.84509	805.05078	1416.63696	1441.40833	841.20685	1122.06689	1442.39709	661.84357	1348.24719	1453.43909	617.20782	1194.92371	1373.45825	860.27313	1217.74219	1601.82605	724.91925	1383.60767	1705.96729	758.71558	1217.39014	1748.83398	753.44415	1071.52002	1764.25391	638.08990	1040.07324	1732.44397	503.76489	1048.70313	1761.66431	523.83600	1001.05731	1772.67188	442.68481	1011.41882	1290.67834	728.02173	1370.31030	1196.67786	815.33667	1179.68604	1189.00574	834.40082	1058.58679	1153.41797	836.40430	940.65607	1162.96362	784.65912	809.43323	1127.98279	830.27209	820.04315	1118.26221	804.28937	741.07605	1562.33569	674.50464	915.54907	1348.70178	648.34778	925.91107	1489.46594	852.26807	927.43219	1344.45728	834.02948	930.08832	1623.15991	759.69537	586.77570	1618.74463	800.57501	457.64359	1621.43286	956.44904	349.07867	1579.30237	1114.61938	194.22675	1520.31128	1149.35645	212.02003	1579.69727	1082.55981	46.87519	1282.13574	615.60315	604.39227	1313.01404	557.07117	457.52112	1299.19141	584.43683	281.73248	1343.71082	596.28168	77.06657	1389.63428	647.63055	38.32438	1351.73560	456.89389	38.95289	1412.02661	637.80499	1692.58484	-3101.95874	1973.14221	1023.34186	-3140.62671	2012.53491	1022.08447 
50	0.490	1498.47742	637.90637	1654.22351	1388.19873	612.84186	1658.52783	1478.24695	753.30481	1612.95129	1360.84277	730.56281	1616.44543	1441.46106	792.14941	1416.81824	1441.00647	828.24438	1122.48181	1441.02405	648.43530	1348.58374	1452.26794	603.87323	1195.36060	1372.64648	846.75568	1217.73145	1600.50610	711.63251	1384.03796	1704.01245	747.80438	1217.72388	1746.56567	745.22034	1071.99719	1761.97156	630.29022	1038.35217	1730.44897	495.85126	1044.49707	1759.65808	516.75787	997.19928	1770.42175	435.27591	1005.84076	1289.11938	714.53326	1370.33142	1195.39832	799.39282	1178.70850	1188.43420	817.25775	1057.25000	1153.06628	818.30548	939.38586	1163.39478	765.90411	808.33246	1127.93555	811.15125	818.74994	1118.71228	784.89313	739.63745	1560.52356	660.32281	915.40033	1346.82996	635.74988	926.59070	1489.45398	838.82977	927.11493	1344.51343	821.41998	930.94739	1622.56458	737.41937	584.66968	1618.97913	775.95380	455.25418	1621.78833	934.69788	351.30444	1579.35010	1096.90051	202.14674	1520.44202	1130.17126	222.77142	1579.91626	1074.53137	52.39544	1281.38232	602.79407	603.80103	1312.68921	547.91516	455.58820	1299.03809	579.54999	280.62958	1344.24316	595.54828	77.13755	1389.99182	647.34912	38.47763	1351.92871	456.26379	38.29608	1409.00684	625.21844	1692.76245	-3101.92725	1973.08447	1023.58191	-3140.69604	2012.58667	1022.24109 
51	0.500	1495.87927	625.03491	1655.26514	1385.54858	599.94537	1658.84033	1475.81299	740.33948	1613.53699	1358.41675	717.49432	1616.31555	1440.16418	778.95721	1417.47388	1440.37195	815.28693	1123.19189	1439.92493	635.23615	1349.12036	1451.33740	590.71924	1195.93945	1371.84338	833.53003	1218.26794	1599.50952	698.45685	1384.58508	1702.29407	736.93726	1218.21948	1744.06873	737.13544	1072.27283	1759.61365	622.81024	1036.44849	1728.52686	488.27863	1039.84595	1757.60400	510.21600	992.85181	1768.12659	428.37109	999.49762	1288.07410	701.23560	1370.82214	1194.30188	783.62134	1177.97180	1187.68311	800.32013	1056.28833	1152.88440	800.06720	938.35413	1164.01160	746.57764	807.68640	1128.08691	791.67090	817.77252	1119.35803	764.74597	738.72723	1558.45337	645.74121	915.87213	1345.09387	623.46478	927.30902	1489.36951	825.71326	926.75262	1344.43970	809.10413	931.55017	1621.69653	715.17914	583.13129	1618.67883	751.13049	453.10617	1622.14465	911.94263	353.29626	1579.05493	1077.62500	210.20387	1520.34680	1109.00586	233.20663	1579.79199	1064.30457	58.39401	1280.86206	591.44519	603.42438	1312.06006	539.65479	454.06686	1298.76331	574.88593	279.86212	1344.47229	595.25299	77.15611	1390.28003	647.28937	38.47773	1352.10876	456.01395	37.95827	1406.18726	612.95544	1692.85913	-3101.86182	1973.17859	1023.53046	-3140.69775	2012.48657	1022.08801 
